PathFileType	4	(X/Y/Z)	c:/Users/goper/Files/vsCode/490R/osim_files/C10/C10_Slow_02.trc
DataRate	CameraRate	NumFrames	NumMarkers	Units                	OrigDataRate	OrigDataStartFrame	OrigNumFrames
250.00	250.00	4	36	mm	250.0	1308	2614
                Frame#	Time	LPSIS			LASIS			LTH1			LTH2			LTH3			LTH4			LLFE			LMFE			LSH1			LSH2			LSH3			LSH4			LLMAL			LMMAL			LCAL			LMTP5			LTOE			LMTP1			RPSIS			RASIS			RTH1			RTH2			RTH3			RTH4			RLFE			RMFE			RSH1			RSH2			RSH3			RSH4			RLMAL			RMMAL			RCAL			RMTP1			RTOE			RMTP5		
		X1	Y1	Z1	X2	Y2	Z2	X3	Y3	Z3	X4	Y4	Z4	X5	Y5	Z5	X6	Y6	Z6	X7	Y7	Z7	X8	Y8	Z8	X9	Y9	Z9	X10	Y10	Z10	X11	Y11	Z11	X12	Y12	Z12	X13	Y13	Z13	X14	Y14	Z14	X15	Y15	Z15	X16	Y16	Z16	X17	Y17	Z17	X18	Y18	Z18	X19	Y19	Z19	X20	Y20	Z20	X21	Y21	Z21	X22	Y22	Z22	X23	Y23	Z23	X24	Y24	Z24	X25	Y25	Z25	X26	Y26	Z26	X27	Y27	Z27	X28	Y28	Z28	X29	Y29	Z29	X30	Y30	Z30	X31	Y31	Z31	X32	Y32	Z32	X33	Y33	Z33	X34	Y34	Z34	X35	Y35	Z35	X36	Y36	Z36

1308	5.22800	-1169.40173	989.94080	205.44859	-1314.36902	968.02368	361.29608	-1220.08118	754.25653	404.48505	-1214.41736	705.97144	399.90173	-1278.39197	742.50604	392.35532	-1264.67981	697.68854	384.60724	-1143.80933	472.72873	327.64578	-1139.43701	462.57928	210.77028	-1057.09363	414.60330	338.42566	-1038.42969	371.16010	339.98846	-1110.01343	387.12146	323.48099	-1083.80725	348.18039	326.03394	-941.19391	114.11365	290.15033	0.00000	0.00000	0.00000	-857.84357	80.26849	252.36656	-1026.51135	29.38390	296.18286	-1073.68982	43.82689	229.13577	-1033.79858	27.68535	185.89670	-1174.34314	978.71191	127.83061	-1339.05420	957.39032	26.29643	-1343.88940	691.58813	-13.57736	-1370.38733	655.26190	-7.74163	-1395.80249	721.88812	-10.35365	-1415.24951	681.93127	-4.66313	-1486.83679	473.05054	64.69601	-1487.09399	472.93631	174.84102	-1447.93884	364.85501	51.60019	-1467.15662	325.35898	50.96233	-1507.05420	385.32776	58.03434	-1517.25427	343.18423	56.29848	-1576.35962	87.90478	95.85545	-1600.52454	80.46391	182.57565	-1535.01123	33.51144	135.95128	-1721.10486	68.87178	165.37181	-1744.07275	101.12217	128.91922	-1702.83154	71.00607	66.25508
1309	5.23200	-1175.31689	989.68488	205.25252	-1320.65930	967.40289	360.89694	-1225.16504	754.13885	403.92203	-1220.02075	705.48828	399.19427	-1283.91797	741.91541	391.69684	-1270.41309	697.01678	383.79004	-1148.83789	472.25443	327.27164	-1144.38855	462.12924	210.26918	-1061.58252	415.06787	338.33224	-1041.85547	372.15378	339.96573	-1114.19421	387.08038	323.20245	-1087.56409	348.44162	325.82919	-942.65686	115.68172	290.63477	0.00000	0.00000	0.00000	-858.94299	82.79642	252.83238	-1026.77380	29.39145	296.21753	-1073.78979	43.61520	229.08563	-1034.02026	28.05818	185.82697	-1179.97046	978.51953	127.58330	-1344.49475	957.28564	25.53453	-1349.79651	692.35004	-13.72582	-1375.93945	655.84998	-7.49810	-1401.89929	722.23956	-10.13131	-1421.00793	682.16388	-4.18185	-1491.21472	473.09747	63.88741	-1490.92505	472.51883	174.85477	-1452.09607	365.34283	51.87783	-1471.79553	325.63492	52.31329	-1511.39490	385.67145	57.61227	-1521.47485	343.59778	55.74434	-1579.59363	87.65254	95.50179	-1603.63635	81.93276	182.04884	-1535.89062	34.65726	135.46608	-1722.96631	65.40835	166.15771	-1746.86035	97.01621	129.82967	-1705.24976	67.76288	66.92868
1310	5.23600	-1181.20972	989.52759	205.23900	-1326.94849	966.85876	360.49420	-1231.47229	753.28302	403.18259	-1225.79553	705.04053	398.45679	-1289.71667	741.38373	390.98563	-1276.22302	696.36530	382.95374	-1154.02380	472.06625	326.72906	-1149.49072	461.73416	209.67056	-1066.15991	415.69687	337.96274	-1045.98230	372.88306	339.78619	-1118.49988	387.09842	322.82660	-1091.52991	348.79288	325.53802	-944.19476	117.27144	291.09909	0.00000	0.00000	0.00000	-860.13068	85.41110	253.36627	-1027.09192	29.41175	296.22729	-1074.03723	43.69873	228.79089	-1034.28040	28.84062	185.51080	-1185.51282	978.50214	127.39233	-1350.00232	957.34839	24.71790	-1355.34888	693.51129	-13.82904	-1381.12634	656.80536	-7.53193	-1407.71362	722.91895	-9.78515	-1426.45581	682.62030	-3.88810	-1495.47437	473.58899	62.99402	-1494.78882	472.55038	174.97449	-1456.63416	366.20819	51.85908	-1475.94214	326.56586	51.88547	-1516.36316	386.43423	57.06632	-1525.85034	344.30045	55.07357	-1581.81506	87.16675	95.21964	-1606.78784	84.12550	181.09042	-1537.14526	35.25304	134.97754	-1724.37476	62.22038	167.09018	-1749.10193	93.05497	130.91766	-1707.36670	64.69357	67.74206
1311	5.24000	-1187.05005	989.46735	205.27345	-1333.34692	966.35767	360.06418	-1237.29370	752.81299	402.38889	-1231.57776	704.62378	397.59659	-1295.63025	740.90527	390.20798	-1282.10840	695.73657	382.10147	-1159.06836	471.72931	326.75299	-1154.72925	461.39963	209.10574	-1070.97473	416.34589	337.62845	-1050.57971	373.64114	339.60031	-1122.91870	387.11844	322.55423	-1095.67383	349.12036	325.28024	-945.82361	118.98325	291.53940	0.00000	0.00000	0.00000	-861.38580	88.17778	253.85394	-1027.43359	29.53628	296.26385	-1074.22668	43.68848	228.64348	-1034.55371	29.46581	185.34738	-1190.98132	978.66022	127.23497	-1355.45251	957.54877	23.91046	-1360.65234	694.87915	-13.91260	-1385.34106	657.94330	-7.48854	-1413.13110	723.89014	-9.41877	-1431.62598	683.47357	-3.83383	-1499.96582	474.64316	61.99837	-1498.64209	472.81207	174.91924	-1461.31042	367.39780	51.51497	-1480.41418	327.74274	51.08974	-1520.71716	387.34625	56.66286	-1530.48279	345.25571	54.29639	-1583.37061	86.72282	95.02870	-1610.11169	85.80289	180.28152	-1538.19531	35.58524	134.65857	-1725.40381	59.24455	168.11015	-1750.70032	89.23566	131.95770	-1709.33667	61.75678	68.54967
